<?xml version="1.0" encoding="UTF-8"?>
<svg version="1.1" xmlns="http://www.w3.org/2000/svg" width="1280" height="731">
<path d="M0 0 C2.37833818 2.07195837 4.31729086 4.33108771 6 7 C6 7.66 6 8.32 6 9 C6.66 9 7.32 9 8 9 C9.31274414 10.42114258 9.31274414 10.42114258 10.78515625 12.39453125 C11.58083008 13.45704102 11.58083008 13.45704102 12.39257812 14.54101562 C12.94365234 15.29060547 13.49472656 16.04019531 14.0625 16.8125 C14.61744141 17.55048828 15.17238281 18.28847656 15.74414062 19.04882812 C19.86510493 24.5953148 19.86510493 24.5953148 21 28 C21.66 28 22.32 28 23 28 C24.7265625 29.8984375 24.7265625 29.8984375 26.625 32.375 C27.25664063 33.18710938 27.88828125 33.99921875 28.5390625 34.8359375 C30 37 30 37 30 39 C30.99 39.33 31.98 39.66 33 40 C34.83984375 42.1953125 34.83984375 42.1953125 36.9375 45.125 C37.72821941 46.21127632 38.52131396 47.29582653 39.31640625 48.37890625 C39.74324707 48.96043457 40.17008789 49.54196289 40.60986328 50.14111328 C43.12584635 53.50547842 45.74950984 56.78333595 48.375 60.0625 C48.88667725 60.70525879 49.39835449 61.34801758 49.92553711 62.01025391 C50.41159424 62.61659668 50.89765137 63.22293945 51.3984375 63.84765625 C52.04304932 64.6521521 52.04304932 64.6521521 52.70068359 65.47290039 C53.9951227 67.06042118 53.9951227 67.06042118 55.66259766 68.50952148 C57 70 57 70 57 73 C57.99 73.33 58.98 73.66 60 74 C64 78.45714286 64 78.45714286 64 81 C64.66 81 65.32 81 66 81 C67.60140767 82.90413123 69.08961082 84.81222147 70.5625 86.8125 C71.45538705 88.00383824 72.34995312 89.19391971 73.24609375 90.3828125 C73.70097168 90.98641602 74.15584961 91.59001953 74.62451172 92.21191406 C77.42711673 95.85520108 80.41392671 99.3472525 83.3828125 102.85546875 C85 105 85 105 85 107 C85.66 107 86.32 107 87 107 C88.5246582 108.72485352 88.5246582 108.72485352 90.30078125 111.12890625 C90.94853516 111.99966797 91.59628906 112.87042969 92.26367188 113.76757812 C92.93978516 114.68990234 93.61589844 115.61222656 94.3125 116.5625 C94.97701172 117.45775391 95.64152344 118.35300781 96.32617188 119.27539062 C98.22778467 121.84285004 100.1160434 124.41956763 102 127 C102.49234131 127.66765381 102.98468262 128.33530762 103.49194336 129.02319336 C118.16166216 149.13813613 124.42099356 175.25404001 124.3125 199.75 C124.30758545 201.06895264 124.3026709 202.38790527 124.29760742 203.74682617 C124.18034529 213.52047462 123.43192137 222.5242267 121 232 C120.81775879 232.71961914 120.63551758 233.43923828 120.44775391 234.18066406 C118.18271638 242.95697488 115.48704935 251.08167761 111 259 C109.93680792 260.95795769 108.87432211 262.91629903 107.8125 264.875 C107.32394531 265.75929688 106.83539062 266.64359375 106.33203125 267.5546875 C105.17285212 269.68268203 104.06734337 271.82484526 103 274 C102.34 274 101.68 274 101 274 C100.731875 274.7425 100.46375 275.485 100.1875 276.25 C99.04723249 278.89061949 97.90619694 280.85552844 96 283 C95.34 283 94.68 283 94 283 C93.62681641 283.84498047 93.62681641 283.84498047 93.24609375 284.70703125 C82.03120394 305.34383475 53.93354016 319.50329877 32.46801758 325.99707031 C21.4433615 329.18635764 10.99561595 330.30568181 -0.44677734 330.20581055 C-2.65603869 330.18723908 -4.86488651 330.18530361 -7.07421875 330.18554688 C-17.8520833 330.1479167 -17.8520833 330.1479167 -19 329 C-19.70423083 318.43653759 -16.97856545 308.55769097 -12.76953125 298.92578125 C-11.87631137 297.03610446 -11.87631137 297.03610446 -12 295 C-13.65091584 297.10034847 -15.29581238 299.20495833 -16.9375 301.3125 C-17.40607422 301.90740234 -17.87464844 302.50230469 -18.35742188 303.11523438 C-20.38555959 305.72700884 -21.94630801 307.83892403 -23 311 C-23.66 311 -24.32 311 -25 311 C-25.37125 312.175625 -25.37125 312.175625 -25.75 313.375 C-27.33931493 317.98401329 -29.16207173 322.48547716 -31 327 C-48.22237439 325.8323814 -63.31949061 317.96205876 -77.5 308.625 C-78.15339355 308.19622559 -78.80678711 307.76745117 -79.47998047 307.32568359 C-81.02708744 306.27428832 -82.52004581 305.14398758 -84 304 C-84 303.34 -84 302.68 -84 302 C-84.99 302 -85.98 302 -87 302 C-87 301.34 -87 300.68 -87 300 C-87.99 299.67 -88.98 299.34 -90 299 C-90 298.34 -90 297.68 -90 297 C-90.556875 296.7525 -91.11375 296.505 -91.6875 296.25 C-94.44160479 294.76129471 -96.69174514 293.11590028 -99 291 C-99 290.01 -99 289.02 -99 288 C-99.55429687 287.79246094 -100.10859375 287.58492188 -100.6796875 287.37109375 C-115.75533022 278.46275942 -124.92561899 253.53113173 -129.3527832 237.54345703 C-132.31704218 225.89440005 -133.50780972 215.1150268 -133.44604492 203.13964844 C-133.43753034 200.63392889 -133.46643409 198.13049685 -133.49804688 195.625 C-133.54470968 184.54648897 -131.9762308 174.65219927 -129 164 C-128.75580322 163.03465332 -128.51160645 162.06930664 -128.26000977 161.07470703 C-126.66568583 154.77491786 -123.74123833 149.12955816 -120.76171875 143.39453125 C-119.26659502 140.51368308 -117.84310061 137.61242296 -116.4375 134.6875 C-114.04329206 129.90701197 -111.40857539 125.13827041 -108 121 C-107.34 121 -106.68 121 -106 121 C-105.731875 120.42765625 -105.46375 119.8553125 -105.1875 119.265625 C-103.95867364 116.92115366 -102.57477824 114.87595062 -101 112.75 C-100.484375 112.04359375 -99.96875 111.3371875 -99.4375 110.609375 C-98.963125 110.07828125 -98.48875 109.5471875 -98 109 C-97.34 109 -96.68 109 -96 109 C-95.773125 108.484375 -95.54625 107.96875 -95.3125 107.4375 C-93.51782382 104.10452995 -91.50034985 100.85296329 -89 98 C-88.34 98 -87.68 98 -87 98 C-86.773125 97.484375 -86.54625 96.96875 -86.3125 96.4375 C-84.51782382 93.10452995 -82.50034985 89.85296329 -80 87 C-79.34 87 -78.68 87 -78 87 C-77.78472656 86.31292969 -77.56945312 85.62585938 -77.34765625 84.91796875 C-75.60494188 81.14461329 -73.17480523 78.4073022 -70.4375 75.3125 C-66.85080297 71.41394767 -66.85080297 71.41394767 -64 67 C-63.34 67 -62.68 67 -62 67 C-61.773125 66.484375 -61.54625 65.96875 -61.3125 65.4375 C-59.51782382 62.10452995 -57.50034985 58.85296329 -55 56 C-54.34 56 -53.68 56 -53 56 C-52.773125 55.29875 -52.54625 54.5975 -52.3125 53.875 C-50.66158712 50.25871465 -48.7091165 47.91230024 -46 45 C-45.34 45 -44.68 45 -44 45 C-43.61328125 44.17242187 -43.61328125 44.17242187 -43.21875 43.328125 C-41.82036875 40.65685825 -40.21236695 38.23148091 -38.5 35.75 C-37.8915625 34.85796875 -37.283125 33.9659375 -36.65625 33.046875 C-36.1096875 32.37140625 -35.563125 31.6959375 -35 31 C-34.34 31 -33.68 31 -33 31 C-32.773125 30.47921875 -32.54625 29.9584375 -32.3125 29.421875 C-30.52480639 26.12315465 -28.28109676 23.21542579 -26 20.25 C-25.54882812 19.64800781 -25.09765625 19.04601562 -24.6328125 18.42578125 C-23.47177498 16.91093644 -22.24072061 15.45030179 -21 14 C-20.34 14 -19.68 14 -19 14 C-18.71125 13.4225 -18.4225 12.845 -18.125 12.25 C-17.08333333 10.16666667 -16.04166667 8.08333333 -15 6 C-14.34 6 -13.68 6 -13 6 C-13 5.01 -13 4.02 -13 3 C-9.33346876 -1.53951486 -5.38882337 -1.46137583 0 0 Z M-9.375 49.375 C-13.3960973 53.13980758 -16.97166561 57.3976681 -20 62 C-20 62.66 -20 63.32 -20 64 C-21.485 64.495 -21.485 64.495 -23 65 C-28.49101589 71.33697072 -31.71476324 79.38643944 -35 87 C-35.32097656 87.68707031 -35.64195312 88.37414062 -35.97265625 89.08203125 C-40.20739281 98.84958944 -40.39249187 110.51174493 -40 121 C-40.71285156 120.96519531 -41.42570313 120.93039062 -42.16015625 120.89453125 C-50.90159908 120.6474649 -56.37034397 121.92281531 -63 128 C-65.26598904 130.58970176 -66.39425123 132.60780689 -67 136 C-68.98 136.495 -68.98 136.495 -71 137 C-71.495 132.545 -71.495 132.545 -72 128 C-72.7425 128.7425 -73.485 129.485 -74.25 130.25 C-75.82322707 131.82322707 -77.41622283 133.37838439 -79.0625 134.875 C-81.13672228 137.14995347 -82.51560891 139.42586885 -83.97265625 142.12109375 C-84.73310205 143.51187106 -85.54327848 144.8757095 -86.37890625 146.22265625 C-87.65061042 148.40140725 -88.77751962 150.54344649 -89.8671875 152.8125 C-90.19589844 153.49570312 -90.52460937 154.17890625 -90.86328125 154.8828125 C-91.53631494 156.29124593 -92.20302256 157.70272027 -92.86328125 159.1171875 C-95.74879878 165.06786568 -99.1454439 169.49028789 -105.3125 172.3125 C-106.00988281 172.63863281 -106.70726562 172.96476562 -107.42578125 173.30078125 C-108.20501953 173.64689453 -108.20501953 173.64689453 -109 174 C-109 174.66 -109 175.32 -109 176 C-109.99 176.33 -110.98 176.66 -112 177 C-115.67270641 181.37899611 -116.00863102 186.47614685 -116 192 C-115.15456511 196.36808024 -114.11718287 199.75293451 -111 203 C-110.34 203 -109.68 203 -109 203 C-109 203.66 -109 204.32 -109 205 C-107.8553125 205.556875 -107.8553125 205.556875 -106.6875 206.125 C-101.4848743 209.75473886 -100.93901857 216.18108613 -99.6875 222.0625 C-97.17749323 233.28600176 -92.93331629 243.33556567 -86.41796875 252.828125 C-85 255 -85 255 -84 258 C-82.3545622 259.68762851 -80.68711423 261.3540349 -79 263 C-78.34 263.99 -77.68 264.98 -77 266 C-76.34 266 -75.68 266 -75 266 C-74.67 266.99 -74.34 267.98 -74 269 C-73.34 269 -72.68 269 -72 269 C-71.67 269.99 -71.34 270.98 -71 272 C-70.34 272 -69.68 272 -69 272 C-68.67 272.99 -68.34 273.98 -68 275 C-65.98437732 276.6771786 -65.98437732 276.6771786 -63.5625 278.1875 C-62.75941406 278.71730469 -61.95632813 279.24710938 -61.12890625 279.79296875 C-59.1179102 281.16440464 -59.1179102 281.16440464 -57 281 C-57 281.66 -57 282.32 -57 283 C-42.01624853 290.93024968 -42.01624853 290.93024968 -25.625 294 C-17.83774065 291.03342501 -13.26197583 281.96521614 -9.6875 274.875 C-5.18151809 263.94857755 -4.76998446 250.40149849 -9.0625 239.3125 C-9.98079499 237.50934932 -10.9596842 235.73561548 -12 234 C-12.51949219 233.09894531 -13.03898438 232.19789063 -13.57421875 231.26953125 C-20.51277941 220.31986793 -30.44733803 216.69291451 -42.18798828 212.63867188 C-43.71003446 212.10220289 -45.21496331 211.51751097 -46.71484375 210.921875 C-51.42914903 209.09912076 -54.95858446 208.82904983 -59.95703125 209.67578125 C-62 210 -62 210 -66 210 C-66.598125 210.66 -67.19625 211.32 -67.8125 212 C-70 214 -70 214 -73.5 214.4375 C-77.18665435 213.97666821 -78.19989745 213.22077099 -81 211 C-82.85266073 211.29485154 -82.85266073 211.29485154 -85 212 C-88.84656198 212.22626835 -92.30721164 212.23092945 -96 211 C-96.226875 209.9275 -96.45375 208.855 -96.6875 207.75 C-98.30016156 203.14239553 -100.03630009 202.18512991 -104.125 199.84765625 C-105.9607859 198.86268576 -105.9607859 198.86268576 -108 199 C-109.43847996 193.42589017 -109.54018356 187.76093817 -108.4375 182.125 C-106.28484032 178.94280742 -103.53863481 178.31949095 -100 177 C-97.21921611 175.51260396 -95.16908871 174.16908871 -92.9375 171.9375 C-91 170 -91 170 -88.9375 169.1875 C-85.86467315 167.30415451 -85.3149904 164.25888924 -84 161 C-82.32438475 158.82977543 -81.43596607 158.09863826 -78.73828125 157.48828125 C-77.93777344 157.43027344 -77.13726563 157.37226563 -76.3125 157.3125 C-75.50425781 157.24675781 -74.69601562 157.18101562 -73.86328125 157.11328125 C-73.24839844 157.07589844 -72.63351562 157.03851563 -72 157 C-71.90203125 156.31292969 -71.8040625 155.62585938 -71.703125 154.91796875 C-71.55359375 154.01691406 -71.4040625 153.11585938 -71.25 152.1875 C-71.11078125 151.29417969 -70.9715625 150.40085937 -70.828125 149.48046875 C-69.80638074 146.42005552 -68.77432369 145.58176368 -66 144 C-64.93458984 143.79503906 -64.93458984 143.79503906 -63.84765625 143.5859375 C-63.23792969 143.39257812 -62.62820313 143.19921875 -62 143 C-60.9691244 141.01563955 -60.9691244 141.01563955 -60.4375 138.625 C-59.52224465 135.13452306 -58.6057987 133.4686514 -56 131 C-56 130.34 -56 129.68 -56 129 C-48.50881405 127.30844188 -42.31699427 126.3534276 -35 129 C-32.7986134 125.19572508 -32.7986134 125.19572508 -32 121 C-29.10511815 119.3749186 -26.80091288 118.70315566 -23.5 118.4375 C-20.56104141 118.1909093 -17.84641172 117.78276322 -15 117 C-15 116.34 -15 115.68 -15 115 C-14.34 115 -13.68 115 -13 115 C-12.67 114.34 -12.34 113.68 -12 113 C-6.81225889 110.08189563 -0.83291611 110.30750939 4.8125 111.6875 C8.91957557 114.15174534 10.96817147 117.79313035 13 122 C13.70125 121.7834375 14.4025 121.566875 15.125 121.34375 C24.43163222 118.61245576 30.95173582 117.57073039 39.796875 122.38671875 C45.44993681 126.52628352 46.60303701 133.4808394 48 140 C50.97 140.33 53.94 140.66 57 141 C57 141.66 57 142.32 57 143 C57.97850195 144.02104551 58.97980427 145.0206121 60 146 C61.14814997 148.29629994 61.30769809 150.07698086 61.5625 152.625 C61.64628906 153.44226563 61.73007812 154.25953125 61.81640625 155.1015625 C61.87699219 155.72804688 61.93757812 156.35453125 62 157 C63.216875 156.95875 64.43375 156.9175 65.6875 156.875 C69.96422217 156.88255605 73.2043194 157.47185767 76.546875 160.31640625 C78.61705697 162.71492353 79.18483045 165.25734231 80.05859375 168.2578125 C80.52458984 169.12019531 80.52458984 169.12019531 81 170 C82.32594105 170.36162029 83.65967836 170.69598227 85 171 C86.25 174.0625 86.25 174.0625 87 177 C88.051875 177.061875 89.10375 177.12375 90.1875 177.1875 C94.67775398 178.14443937 96.14983129 179.47920336 99 183 C100.57733174 187.73199521 100.52757348 191.55611468 98.8125 196.25 C96.79827971 199.30605838 95.2209945 200.35022233 92 202 C89.75244247 203.3516367 89.75244247 203.3516367 88 205 C87.814375 205.99 87.814375 205.99 87.625 207 C87 209 87 209 84.3125 210.8125 C80.54269528 212.16393943 78.81761541 212.05593618 75 211 C74.13375 210.5875 73.2675 210.175 72.375 209.75 C71.199375 209.37875 71.199375 209.37875 70 209 C69.12021484 209.70769531 69.12021484 209.70769531 68.22265625 210.4296875 C65.35495339 212.45572713 63.54411862 212.40134264 60.0625 212.375 C59.04285156 212.38273438 58.02320313 212.39046875 56.97265625 212.3984375 C53.61349726 211.94819543 51.71756451 210.99320474 49 209 C48.67 208.34 48.34 207.68 48 207 C37.62863624 206.58079817 24.79378483 210.81901934 16.96875 217.81640625 C10.18938553 225.15593007 7.31941935 231.83591056 7.625 241.8125 C7.63861572 242.70195312 7.65223145 243.59140625 7.66625977 244.5078125 C7.79385745 249.80966628 8.3168896 254.7848295 9.5 259.9609375 C10.3531487 265.14648193 10.38960356 270.40929826 10.48217773 275.65820312 C10.68598413 282.25814456 12.03626836 288.07253671 15 294 C22.69232482 294.75414949 29.10100761 292.34312406 36 289 C39.20887776 282.58224447 37.11744551 271.02514402 35.25390625 264.3125 C31.76368316 254.11699354 26.56782829 241.96947366 17.625 235.4375 C15 233 15 233 14.75 230.125 C17.3810399 223.54740025 21.6405012 219.61589834 28.06640625 216.7734375 C28.70449219 216.51820313 29.34257813 216.26296875 30 216 C30.969375 215.608125 31.93875 215.21625 32.9375 214.8125 C36.92799426 213.75379744 40.89354405 213.34676739 45 213 C45.33 213.99 45.66 214.98 46 216 C46.66 216 47.32 216 48 216 C48 216.99 48 217.98 48 219 C48.66 219 49.32 219 50 219 C50.2475 219.70125 50.495 220.4025 50.75 221.125 C51.92771774 224.07362048 51.92771774 224.07362048 53.85546875 226.74609375 C56.03475279 230.05273056 57.80949579 233.38835278 59.5625 236.9375 C60.43068359 238.68353516 60.43068359 238.68353516 61.31640625 240.46484375 C63.9791064 246.05589628 66.26273137 251.39919485 67.6875 257.4375 C68.06455078 259.01337891 68.06455078 259.01337891 68.44921875 260.62109375 C68.72185547 261.79865234 68.72185547 261.79865234 69 263 C81.11373259 251.53709187 89.28394481 232.74816629 91.33984375 216.27734375 C92.20225531 209.69782184 92.20225531 209.69782184 94.90234375 207.3359375 C97.125 206 97.125 206 99.3203125 204.9375 C99.87460937 204.628125 100.42890625 204.31875 101 204 C101 203.34 101 202.68 101 202 C101.66 202 102.32 202 103 202 C106.377382 196.19512469 108.1334619 191.74173692 107 185 C105.04474152 178.31546007 100.91602655 174.45009399 95 171 C93.14375 170.3503125 93.14375 170.3503125 91.25 169.6875 C86.480063 167.21080194 85.84818652 163.84969873 84 159 C80.95166601 152.2122501 77.44695374 145.88316639 73.25 139.75 C72.86110596 139.17668945 72.47221191 138.60337891 72.0715332 138.01269531 C71.10276214 136.63471839 70.05741127 135.31118998 69 134 C68.34 134 67.68 134 67 134 C66.773125 133.484375 66.54625 132.96875 66.3125 132.4375 C64.51782382 129.10452995 62.50034985 125.85296329 60 123 C59.34 123 58.68 123 58 123 C57.773125 122.484375 57.54625 121.96875 57.3125 121.4375 C55.51782382 118.10452995 53.50034985 114.85296329 51 112 C50.34 112 49.68 112 49 112 C48.74992188 111.26652344 48.49984375 110.53304687 48.2421875 109.77734375 C46.89909058 106.77438176 45.37602683 104.94519067 43.125 102.5625 C40.71665608 99.95346075 38.50903071 97.44909454 36.625 94.4375 C35.820625 93.2309375 35.820625 93.2309375 35 92 C34.34 92 33.68 92 33 92 C32.773125 91.484375 32.54625 90.96875 32.3125 90.4375 C30.51782382 87.10452995 28.50034985 83.85296329 26 81 C25.34 81 24.68 81 24 81 C24 80.01 24 79.02 24 78 C22.37660195 76.29115995 20.70680947 74.62553283 19 73 C18.01 71.515 18.01 71.515 17 70 C16.34 70 15.68 70 15 70 C14.59007812 69.13036621 14.59007812 69.13036621 14.171875 68.24316406 C12.19453084 64.45819779 9.55495563 61.16062473 7 57.75 C6.4534375 57.00492187 5.906875 56.25984375 5.34375 55.4921875 C4.55484375 54.43644531 4.55484375 54.43644531 3.75 53.359375 C3.27046875 52.71452148 2.7909375 52.06966797 2.296875 51.40527344 C1.86890625 50.9415332 1.4409375 50.47779297 1 50 C0.34 50 -0.32 50 -1 50 C-1 49.34 -1 48.68 -1 48 C-4.70063661 46.43003295 -6.40752426 46.93671294 -9.375 49.375 Z M-8 183 C-8 183.66 -8 184.32 -8 185 C-8.99 185.33 -9.98 185.66 -11 186 C-10.05016642 187.50539661 -9.08988109 189.00420347 -8.125 190.5 C-7.59132813 191.3353125 -7.05765625 192.170625 -6.5078125 193.03125 C-6.01023437 193.6809375 -5.51265625 194.330625 -5 195 C-4.34 195 -3.68 195 -3 195 C-2.01 192.36 -1.02 189.72 0 187 C-2.64 185.68 -5.28 184.36 -8 183 Z M8 186 C2.15104279 196.30530556 1.57838477 206.42900422 2 218 C2.66 218.33 3.32 218.66 4 219 C5.105981 217.75160501 6.20970201 216.50120766 7.3125 215.25 C7.92738281 214.55390625 8.54226563 213.8578125 9.17578125 213.140625 C13.95911446 207.52763442 16.53425658 202.55129358 17.5 195.1875 C17.35672052 191.833246 17.35672052 191.833246 14.625 190.25 C13.75875 189.8375 12.8925 189.425 12 189 C11.34 188.01 10.68 187.02 10 186 C9.34 186 8.68 186 8 186 Z M-19 188 C-19.33 190.64 -19.66 193.28 -20 196 C-20.99 196.33 -21.98 196.66 -23 197 C-23 197.66 -23 198.32 -23 199 C-23.804375 198.979375 -24.60875 198.95875 -25.4375 198.9375 C-27.93354885 198.70366379 -27.93354885 198.70366379 -29 200 C-28.83898589 204.1863669 -28.44774466 206.437121 -25.8125 209.75 C-22.97866588 212.01706729 -20.26210463 213.4369082 -17 215 C-15.32963607 216.32869858 -13.66215268 217.66104368 -12 219 C-11.34 219 -10.68 219 -10 219 C-10 219.66 -10 220.32 -10 221 C-8.515 221.495 -8.515 221.495 -7 222 C-7.1782279 209.2324012 -8.49642882 197.50357118 -18 188 C-18.33 188 -18.66 188 -19 188 Z M23 190 C21.11940967 191.88059033 21.87638782 194.49890038 21.8671875 196.9921875 C21.92873469 199.20774018 21.92873469 199.20774018 23 202 C26.36720387 200.60667426 27.9859524 199.0210714 30 196 C29.34 196 28.68 196 28 196 C27.67 194.02 27.34 192.04 27 190 C25.68 190 24.36 190 23 190 Z M-45 197 C-45.88791631 198.1411908 -46.73616038 199.31346106 -47.5625 200.5 C-48.7690625 202.2325 -48.7690625 202.2325 -50 204 C-44.06 205.485 -44.06 205.485 -38 207 C-39.78604163 203.42791675 -41.70422261 200.25852274 -44 197 C-44.33 197 -44.66 197 -45 197 Z M36 200 C36.33 200.66 36.66 201.32 37 202 C37.33 201.34 37.66 200.68 38 200 C37.34 200 36.68 200 36 200 Z " fill="#6DB738" transform="translate(641,210)"/>
<path d="M0 0 C2.375 -0.125 2.375 -0.125 5 0 C5.66 0.66 6.32 1.32 7 2 C11.54426055 3.44630689 16.22525174 4.30804827 21 4 C21.33 4.66 21.66 5.32 22 6 C20.68 6.33 19.36 6.66 18 7 C18.45822468 10.46941546 18.89131683 13.67395049 20 17 C21.64232772 17.72455635 23.31624835 18.37774395 25 19 C27.37273725 20.27233737 29.67858886 21.63446403 32 23 C31.01 23.66 30.02 24.32 29 25 C26.99406276 23.54927753 24.99539826 22.09008971 23 20.625 C22.14148438 20.00625 22.14148438 20.00625 21.265625 19.375 C19.80684688 18.29828281 18.39899024 17.15333422 17 16 C17 15.34 17 14.68 17 14 C15.68 14.33 14.36 14.66 13 15 C13 15.66 13 16.32 13 17 C12.34 17 11.68 17 11 17 C10.67 17.99 10.34 18.98 10 20 C1.585 17.03 1.585 17.03 -7 14 C-7 12.02 -7 10.04 -7 8 C-5.68 8 -4.36 8 -3 8 C-2.67 8.99 -2.34 9.98 -2 11 C0.32891096 12.02700444 0.32891096 12.02700444 3.0625 12.6875 C3.98160156 12.93886719 4.90070312 13.19023437 5.84765625 13.44921875 C6.55792969 13.63097656 7.26820313 13.81273437 8 14 C7.566875 13.44570313 7.13375 12.89140625 6.6875 12.3203125 C5.8521875 11.23363281 5.8521875 11.23363281 5 10.125 C4.443125 9.40570313 3.88625 8.68640625 3.3125 7.9453125 C2 6 2 6 2 4 C1.34 4 0.68 4 0 4 C0 2.68 0 1.36 0 0 Z " fill="#75BA45" transform="translate(595,403)"/>
<path d="M0 0 C0.83310753 2.88628287 1.09946888 5.38037672 1.02734375 8.37890625 C1.01372803 9.21164062 1.0001123 10.044375 0.98608398 10.90234375 C0.97005127 11.78019531 0.95401855 12.65804688 0.9375 13.5625 C0.87485402 19.91965606 1.09021654 25.7409255 2.4921875 31.9609375 C3.35995156 37.15417165 3.45991592 42.40271754 3.65795898 47.65820312 C3.87086987 53.14946193 4.33582188 58.54385908 5 64 C-1.03938354 58.4259609 0.37853535 47.41491645 -0.16210938 39.6484375 C-0.64118703 33.22957593 -1.4116736 26.96318909 -2.56933594 20.63012695 C-3.81288684 13.03558397 -2.82932529 7.1238369 0 0 Z " fill="#75B944" transform="translate(649,438)"/>
<path d="M0 0 C0.33 1.98 0.66 3.96 1 6 C5.95 5.67 10.9 5.34 16 5 C16.33 6.32 16.66 7.64 17 9 C16.01 9.495 16.01 9.495 15 10 C15 9.01 15 8.02 15 7 C13.05000871 7.19471111 13.05000871 7.19471111 11 8 C9.71563266 9.9837767 9.71563266 9.9837767 9 12 C5.66940318 11.42575917 4.22854819 10.50711671 2 8 C0.70644173 6.62804426 -0.62298702 5.28817344 -2 4 C-2.66 4 -3.32 4 -4 4 C-4.50660156 5.66289062 -4.50660156 5.66289062 -5.0234375 7.359375 C-5.47377534 8.82297298 -5.92430633 10.28651155 -6.375 11.75 C-6.59671875 12.47960937 -6.8184375 13.20921875 -7.046875 13.9609375 C-8.12929356 17.46287989 -9.19171724 20.78903061 -11 24 C-11.64144555 15.70397095 -11.17182962 8.83225914 -6 2 C-3.81106347 0.63818071 -2.57841005 0 0 0 Z " fill="#74B847" transform="translate(653,393)"/>
<path d="M0 0 C1.2065625 0.0309375 1.2065625 0.0309375 2.4375 0.0625 C2.705625 0.619375 2.97375 1.17625 3.25 1.75 C5.50461799 6.68825086 5.50461799 6.68825086 9.4375 10.0625 C10.95703709 5.14667923 10.95703709 5.14667923 11.4375 0.0625 C12.7575 0.7225 14.0775 1.3825 15.4375 2.0625 C15.08816406 2.74957031 14.73882813 3.43664062 14.37890625 4.14453125 C13.92386719 5.04558594 13.46882812 5.94664062 13 6.875 C12.54753906 7.76832031 12.09507812 8.66164063 11.62890625 9.58203125 C10.3543395 12.10249478 10.3543395 12.10249478 9.4375 15.0625 C8.7775 15.0625 8.1175 15.0625 7.4375 15.0625 C7.1075 14.0725 6.7775 13.0825 6.4375 12.0625 C3.42902582 10.83729736 3.42902582 10.83729736 0.4375 10.0625 C0.1075 10.7225 -0.2225 11.3825 -0.5625 12.0625 C-2.68305529 8.52824118 -3.17827388 5.13529689 -3.5625 1.0625 C-2.5625 0.0625 -2.5625 0.0625 0 0 Z " fill="#76B948" transform="translate(628.5625,394.9375)"/>
<path d="M0 0 C1.08667969 0.02707031 2.17335938 0.05414063 3.29296875 0.08203125 C4.54013672 0.13423828 4.54013672 0.13423828 5.8125 0.1875 C6.4725 3.1575 7.1325 6.1275 7.8125 9.1875 C5.5025 9.1875 3.1925 9.1875 0.8125 9.1875 C1.4725 7.8675 2.1325 6.5475 2.8125 5.1875 C2.22082031 5.331875 1.62914062 5.47625 1.01953125 5.625 C-3.11279941 6.59572694 -6.9104762 7.46343702 -11.1875 7.1875 C-8.5404966 1.28264626 -6.59771879 -0.21282964 0 0 Z M-5.1875 2.1875 C-4.8575 2.8475 -4.5275 3.5075 -4.1875 4.1875 C-3.8575 3.5275 -3.5275 2.8675 -3.1875 2.1875 C-3.8475 2.1875 -4.5075 2.1875 -5.1875 2.1875 Z " fill="#8CC659" transform="translate(682.1875,407.8125)"/>
<path d="M0 0 C2.29000466 3.43500699 2.29748064 4.88728019 2.3125 8.9375 C2.32925781 9.97777344 2.34601562 11.01804687 2.36328125 12.08984375 C1.95574403 15.35452359 1.39429784 16.75703475 -1 19 C-2.32 19 -3.64 19 -5 19 C-5 18.01 -5 17.02 -5 16 C-5.66 16.33 -6.32 16.66 -7 17 C-6.80664062 16.43152344 -6.61328125 15.86304688 -6.4140625 15.27734375 C-5.15284272 11.53739005 -3.93046129 7.82091506 -2.9375 4 C-2.628125 3.01 -2.31875 2.02 -2 1 C-1.34 0.67 -0.68 0.34 0 0 Z " fill="#548814" transform="translate(660,403)"/>
<path d="M0 0 C0.495 0.99 0.495 0.99 1 2 C-7.92895748 4.64095925 -16.35981173 5.30137064 -25.625 5.3125 C-27.20764648 5.32023438 -27.20764648 5.32023438 -28.82226562 5.328125 C-37.14654674 5.25298642 -37.14654674 5.25298642 -41 3 C-40.11030518 2.970271 -40.11030518 2.970271 -39.20263672 2.93994141 C-28.63541448 2.56977163 -18.21704025 2.1702528 -7.77734375 0.40234375 C-5.13840036 0.02004956 -2.66159815 -0.07325499 0 0 Z " fill="#63B129" transform="translate(668,535)"/>
<path d="M0 0 C2.16130776 6.48392329 -2.05901422 13.98140735 -4.625 20 C-4.94984375 20.77472656 -5.2746875 21.54945313 -5.609375 22.34765625 C-6.40114142 24.23392332 -7.19984273 26.11727701 -8 28 C-8.33 28 -8.66 28 -9 28 C-8.39891424 22.34979382 -6.92471317 17.33835539 -5 12 C-5.61875 12.825 -6.2375 13.65 -6.875 14.5 C-7.926875 15.7375 -7.926875 15.7375 -9 17 C-9.66 17 -10.32 17 -11 17 C-9.66937346 13.23432688 -8.01113358 10.47135539 -5.5 7.375 C-3.54847024 4.95212619 -1.72828558 2.59242838 0 0 Z " fill="#77BE4A" transform="translate(635,492)"/>
<path d="M0 0 C5.72110938 5.11118301 8.16201442 12.26129509 9.8125 19.625 C10.36668738 29.6003729 10.36668738 29.6003729 10 33 C9.34 33.66 8.68 34.32 8 35 C7.91363281 33.83984375 7.82726562 32.6796875 7.73828125 31.484375 C6.91126257 21.84340477 5.46521697 13.73007164 1 5 C0.42765625 3.85144531 0.42765625 3.85144531 -0.15625 2.6796875 C-0.4346875 2.12539063 -0.713125 1.57109375 -1 1 C-0.67 0.67 -0.34 0.34 0 0 Z " fill="#74BA48" transform="translate(627,439)"/>
<path d="M0 0 C0.89203125 0.10183594 1.7840625 0.20367187 2.703125 0.30859375 C3.37859375 0.39238281 4.0540625 0.47617187 4.75 0.5625 C4.42 1.2225 4.09 1.8825 3.75 2.5625 C3.08613281 2.53929687 2.42226563 2.51609375 1.73828125 2.4921875 C-5.17604505 2.04177935 -5.17604505 2.04177935 -11.25 4.5625 C-12.57928703 7.8262779 -13.47095366 11.12962913 -14.25 14.5625 C-15.66791408 14.10804036 -17.08428046 13.64875056 -18.5 13.1875 C-19.28890625 12.93226563 -20.0778125 12.67703125 -20.890625 12.4140625 C-23.11627958 11.61076333 -25.15931672 10.66538338 -27.25 9.5625 C-25.08032311 8.60784217 -23.68671207 8.41848788 -21.42578125 9.1640625 C-19.6815257 9.92120385 -17.96372869 10.73859198 -16.25 11.5625 C-16.023125 10.675625 -15.79625 9.78875 -15.5625 8.875 C-14.05058917 5.05922505 -12.38717673 3.17681394 -9.25 0.5625 C-6.03639218 -0.59986879 -3.36397133 -0.39836503 0 0 Z " fill="#75BB46" transform="translate(622.25,327.4375)"/>
<path d="M0 0 C0 0.66 0 1.32 0 2 C-2.38564077 1.42415568 -4.66682784 0.77772405 -7 0 C-14.13945702 -0.54276574 -19.61886104 -0.25845393 -26 3 C-26.99 3 -27.98 3 -29 3 C-29 2.34 -29 1.68 -29 1 C-28.01 1 -27.02 1 -26 1 C-26 0.34 -26 -0.32 -26 -1 C-15.8915351 -4.93106968 -9.70547317 -5.03246757 0 0 Z " fill="#77BD48" transform="translate(682,332)"/>
<path d="M0 0 C3.44420326 2.97453918 4.7831959 6.17841396 5.31884766 10.67895508 C5.35026855 11.61634521 5.38168945 12.55373535 5.4140625 13.51953125 C5.45273437 14.54111328 5.49140625 15.56269531 5.53125 16.61523438 C5.5621875 17.67033203 5.593125 18.72542969 5.625 19.8125 C5.66367187 20.88693359 5.70234375 21.96136719 5.7421875 23.06835938 C5.83618613 25.71207088 5.92184573 28.3557805 6 31 C5.01 30.67 4.02 30.34 3 30 C2.98018066 29.42556152 2.96036133 28.85112305 2.93994141 28.25927734 C2.84407976 25.63076167 2.73465126 23.00297509 2.625 20.375 C2.57859375 19.01955078 2.57859375 19.01955078 2.53125 17.63671875 C2.31507133 12.70063917 1.72592139 8.67261644 0 4 C0 2.68 0 1.36 0 0 Z " fill="#81C356" transform="translate(630,406)"/>
<path d="M0 0 C0.66 0 1.32 0 2 0 C1.28272968 6.40258139 0.17132555 12.67827896 -1.0625 19 C-1.24876953 19.96550781 -1.43503906 20.93101562 -1.62695312 21.92578125 C-2.08231343 24.28431409 -2.54004287 26.64236011 -3 29 C-3.33 29 -3.66 29 -4 29 C-6.15055841 19.14327396 -3.13322635 9.39967905 0 0 Z " fill="#74BA3F" transform="translate(513,371)"/>
<path d="M0 0 C0 0.66 0 1.32 0 2 C-0.7734375 2.15855469 -1.546875 2.31710937 -2.34375 2.48046875 C-11.60107847 4.55420198 -17.78914001 7.91583688 -25 14 C-23.86939065 9.19491025 -21.15090166 7.08153329 -17.28515625 4.359375 C-11.83776623 1.11887632 -6.36586623 -0.48968202 0 0 Z " fill="#77BD4A" transform="translate(683,423)"/>
<path d="M0 0 C7.03645577 1.88619822 14.03359344 3.86927695 21 6 C20.01 6.99 19.02 7.98 18 9 C12.06 7.02 6.12 5.04 0 3 C0 2.01 0 1.02 0 0 Z " fill="#64B52E" transform="translate(588,417)"/>
<path d="M0 0 C1.52299523 2.93720508 2.80100302 5.9168649 4 9 C4.61875 8.175 5.2375 7.35 5.875 6.5 C6.57625 5.675 7.2775 4.85 8 4 C8.66 4 9.32 4 10 4 C8.63356852 7.98542514 6.89890986 10.92539863 4 14 C3.01 14 2.02 14 1 14 C-1.48063781 4.58997722 -1.48063781 4.58997722 0 0 Z " fill="#74BC43" transform="translate(707,462)"/>
<path d="M0 0 C0.66 0.33 1.32 0.66 2 1 C1.56429687 1.60585938 1.12859375 2.21171875 0.6796875 2.8359375 C-3.51135346 8.7324237 -7.36683805 14.74510579 -11 21 C-11.703125 19.33984375 -11.703125 19.33984375 -12 17 C-10.671875 14.37890625 -10.671875 14.37890625 -8.75 11.5625 C-8.12609375 10.63566406 -7.5021875 9.70882813 -6.859375 8.75390625 C-6.24578125 7.84511719 -5.6321875 6.93632812 -5 6 C-4.46890625 5.08089844 -3.9378125 4.16179687 -3.390625 3.21484375 C-2 1 -2 1 0 0 Z " fill="#72BC40" transform="translate(535,330)"/>
<path d="M0 0 C0 4.05824935 -1.58098954 5.3596731 -4.234375 8.2734375 C-7.11331559 11.08868472 -9.18413658 12.51246002 -13 14 C-16.1480128 13.73347495 -19.01054181 13.00326488 -22 12 C-22 11.67 -22 11.34 -22 11 C-21.00419922 11.05220703 -21.00419922 11.05220703 -19.98828125 11.10546875 C-12.94129569 11.41251599 -12.94129569 11.41251599 -7 8 C-5.6189635 6.21918977 -4.33837778 4.41495462 -3.11328125 2.5234375 C-2 1 -2 1 0 0 Z " fill="#76BA47" transform="translate(628,492)"/>
<path d="M0 0 C0.33 1.32 0.66 2.64 1 4 C0.01 4.495 0.01 4.495 -1 5 C-1 4.01 -1 3.02 -1 2 C-2.94999129 2.19471111 -2.94999129 2.19471111 -5 3 C-6.28436734 4.9837767 -6.28436734 4.9837767 -7 7 C-8.875 6.75 -8.875 6.75 -11 6 C-12.1328125 3.953125 -12.1328125 3.953125 -13 2 C-11.39658445 1.66307215 -9.79223445 1.33058907 -8.1875 1 C-7.29417969 0.814375 -6.40085937 0.62875 -5.48046875 0.4375 C-3 0 -3 0 0 0 Z " fill="#74BA4B" transform="translate(669,398)"/>
<path d="M0 0 C0.33 0 0.66 0 1 0 C1.04898438 0.70125 1.09796875 1.4025 1.1484375 2.125 C1.50411325 6.63840267 1.87150354 10.95067111 3.125 15.3125 C4.00887604 19.03740615 3.91893032 21.32427874 3 25 C2.67 25 2.34 25 2 25 C0.08041738 16.60182604 -0.22588024 8.59599799 0 0 Z " fill="#7CBC51" transform="translate(647,449)"/>
<path d="M0 0 C1.32 0 2.64 0 4 0 C4.33 0.99 4.66 1.98 5 3 C7.09719872 4.02281518 7.09719872 4.02281518 9.5625 4.6875 C10.38878906 4.93886719 11.21507812 5.19023437 12.06640625 5.44921875 C13.02353516 5.72185547 13.02353516 5.72185547 14 6 C10.45332822 7.25127906 8.27746562 6.72285053 4.75 5.5625 C3.85796875 5.27503906 2.9659375 4.98757813 2.046875 4.69140625 C1.37140625 4.46324219 0.6959375 4.23507812 0 4 C0 2.68 0 1.36 0 0 Z " fill="#7FC051" transform="translate(588,411)"/>
<path d="M0 0 C2.20914 3.31371 2.22481553 4.3446021 2.125 8.1875 C2.10695313 9.08855469 2.08890625 9.98960937 2.0703125 10.91796875 C2.03550781 11.94857422 2.03550781 11.94857422 2 13 C1.01 13.33 0.02 13.66 -1 14 C-1.027193 12.41676312 -1.04648306 10.83338938 -1.0625 9.25 C-1.07410156 8.36828125 -1.08570313 7.4865625 -1.09765625 6.578125 C-1.00826198 4.2181162 -0.66912821 2.25501476 0 0 Z " fill="#376E04" transform="translate(660,403)"/>
<path d="M0 0 C0.99 0.33 1.98 0.66 3 1 C0.03147875 6.22459741 -2.62704618 8.31352309 -8 11 C-8 8 -8 8 -6.50390625 6.46484375 C-5.86324219 5.96082031 -5.22257813 5.45679688 -4.5625 4.9375 C-1.84124807 2.8328667 -1.84124807 2.8328667 0 0 Z " fill="#79BB4C" transform="translate(671,405)"/>
<path d="M0 0 C0.33 0 0.66 0 1 0 C1.82200425 6.24723226 -1.07448606 10.71317837 -4 16 C-5.16161779 13.13421241 -4.9946154 11.98369837 -4.00390625 8.984375 C-3.52824219 7.91703125 -3.05257812 6.8496875 -2.5625 5.75 C-2.08941406 4.67234375 -1.61632812 3.5946875 -1.12890625 2.484375 C-0.75636719 1.66453125 -0.38382813 0.8446875 0 0 Z " fill="#78BB4C" transform="translate(634,475)"/>
<path d="M0 0 C0.33 0 0.66 0 1 0 C0.95875 1.051875 0.9175 2.10375 0.875 3.1875 C0.99470722 6.83857022 1.64855899 8.70586254 3 12 C3.125 15.3125 3.125 15.3125 3 18 C2.34 18 1.68 18 1 18 C-0.83292414 11.59233959 -1.04559253 6.58723293 0 0 Z " fill="#73B745" transform="translate(509,421)"/>
<path d="M0 0 C0.99 0 1.98 0 3 0 C4.859375 2.30078125 4.859375 2.30078125 6.75 5.3125 C7.38421875 6.29863281 8.0184375 7.28476562 8.671875 8.30078125 C10 11 10 11 9 14 C7.49717827 11.85609361 5.99764203 9.71001973 4.5 7.5625 C4.07074219 6.95083984 3.64148438 6.33917969 3.19921875 5.70898438 C0 1.11328125 0 1.11328125 0 0 Z " fill="#73C041" transform="translate(688,429)"/>
<path d="M0 0 C0.66 0.99 1.32 1.98 2 3 C2.99 3.33 3.98 3.66 5 4 C4.34 5.32 3.68 6.64 3 8 C1.68 8 0.36 8 -1 8 C-1 7.01 -1 6.02 -1 5 C-1.99 5.495 -1.99 5.495 -3 6 C-1.125 1.125 -1.125 1.125 0 0 Z " fill="#599B23" transform="translate(656,414)"/>
<path d="M0 0 C0.33 1.32 0.66 2.64 1 4 C-3.29 4.66 -7.58 5.32 -12 6 C-11.34 4.68 -10.68 3.36 -10 2 C-6.7 2 -3.4 2 0 2 C0 1.34 0 0.68 0 0 Z " fill="#79C246" transform="translate(570,365)"/>
<path d="M0 0 C0.99 0.33 1.98 0.66 3 1 C-0.33333333 4.33333333 -3.66666667 7.66666667 -7 11 C-7.4375 8.875 -7.4375 8.875 -7 6 C-4.95580695 3.60411783 -2.74197701 1.56181132 0 0 Z " fill="#77BD48" transform="translate(650,422)"/>
<path d="M0 0 C4.29 0.66 8.58 1.32 13 2 C13 2.66 13 3.32 13 4 C11.20841511 4.02696365 9.41671527 4.04637917 7.625 4.0625 C6.62726562 4.07410156 5.62953125 4.08570313 4.6015625 4.09765625 C2 4 2 4 0 3 C0 2.01 0 1.02 0 0 Z " fill="#62B52B" transform="translate(693,419)"/>
<path d="M0 0 C0.33 0 0.66 0 1 0 C1.66 2.97 2.32 5.94 3 9 C0.69 9 -1.62 9 -4 9 C-3.34 7.68 -2.68 6.36 -2 5 C-2.99 4.67 -3.98 4.34 -5 4 C-3.35 4 -1.7 4 0 4 C0 2.68 0 1.36 0 0 Z " fill="#79BF46" transform="translate(687,408)"/>
<path d="M0 0 C1.19126781 3.57380342 0.7349445 5.50883302 0.0625 9.1875 C-0.13214844 10.27417969 -0.32679688 11.36085938 -0.52734375 12.48046875 C-0.68332031 13.31191406 -0.83929688 14.14335937 -1 15 C-1.33 15 -1.66 15 -2 15 C-3.53151458 5.50047037 -3.53151458 5.50047037 -1 1 C-0.67 0.67 -0.34 0.34 0 0 Z " fill="#79BA4B" transform="translate(511,385)"/>
<path d="M0 0 C2.1640625 -0.29296875 2.1640625 -0.29296875 4.625 -0.1875 C5.44226563 -0.16042969 6.25953125 -0.13335937 7.1015625 -0.10546875 C8.04128906 -0.05326172 8.04128906 -0.05326172 9 0 C8.01 0.495 8.01 0.495 7 1 C7 1.66 7 2.32 7 3 C3.62182575 3.84454356 1.32534757 4.10844919 -2 3 C-1.34 2.01 -0.68 1.02 0 0 Z " fill="#7DBB4D" transform="translate(676,408)"/>
<path d="M0 0 C1 2 1 2 0.22265625 4.6015625 C-0.16019531 5.59929687 -0.54304687 6.59703125 -0.9375 7.625 C-1.50791016 9.12933594 -1.50791016 9.12933594 -2.08984375 10.6640625 C-2.39019531 11.43492187 -2.69054687 12.20578125 -3 13 C-3.33 13 -3.66 13 -4 13 C-2.88767123 3.46575342 -2.88767123 3.46575342 -2 1 C-1.34 0.67 -0.68 0.34 0 0 Z " fill="#77BD45" transform="translate(731,435)"/>
<path d="M0 0 C-0.33 1.32 -0.66 2.64 -1 4 C-4.3 4.66 -7.6 5.32 -11 6 C-10 3 -10 3 -8.22265625 2.05078125 C-7.50980469 1.80714844 -6.79695312 1.56351562 -6.0625 1.3125 C-5.35222656 1.06113281 -4.64195312 0.80976563 -3.91015625 0.55078125 C-2 0 -2 0 0 0 Z " fill="#78BE45" transform="translate(547,384)"/>
<path d="M0 0 C4.455 0.99 4.455 0.99 9 2 C9 2.66 9 3.32 9 4 C9.66 4.33 10.32 4.66 11 5 C6.32674845 5 4.17640953 3.92757363 0 2 C0 1.34 0 0.68 0 0 Z " fill="#67B42D" transform="translate(731,378)"/>
<path d="M0 0 C5.80205656 5.64524422 5.80205656 5.64524422 8 9 C8 9.66 8 10.32 8 11 C4.51127585 9.83709195 3.90023136 8.86032391 1.8125 5.9375 C1.28269531 5.20402344 0.75289062 4.47054687 0.20703125 3.71484375 C-0.19128906 3.14894531 -0.58960938 2.58304688 -1 2 C-0.67 1.34 -0.34 0.68 0 0 Z " fill="#73BB40" transform="translate(650,222)"/>
<path d="M0 0 C3.3 1.65 6.6 3.3 10 5 C9.67 5.99 9.34 6.98 9 8 C2.25 4.5 2.25 4.5 0 0 Z " fill="#66B431" transform="translate(564,516)"/>
<path d="M0 0 C0.33 0.99 0.66 1.98 1 3 C-2.21451269 4.60725635 -5.43612536 4.05748185 -9 4 C-9 3.01 -9 2.02 -9 1 C-4.545 0.505 -4.545 0.505 0 0 Z " fill="#5DB529" transform="translate(557,419)"/>
<path d="M0 0 C0.66 0 1.32 0 2 0 C2.26554688 0.55429687 2.53109375 1.10859375 2.8046875 1.6796875 C3.15789063 2.40414063 3.51109375 3.12859375 3.875 3.875 C4.22304688 4.59429687 4.57109375 5.31359375 4.9296875 6.0546875 C5.96557543 8.15135019 5.96557543 8.15135019 8 10 C6.68 10 5.36 10 4 10 C3.32845067 8.71086513 2.66291141 7.41859796 2 6.125 C1.62875 5.40570313 1.2575 4.68640625 0.875 3.9453125 C0 2 0 2 0 0 Z " fill="#74B844" transform="translate(524,404)"/>
<path d="M0 0 C2.5 1.25 2.5 1.25 5 3 C5 4.32 5 5.64 5 7 C4.01 7 3.02 7 2 7 C0 4 0 4 0 0 Z " fill="#68BC37" transform="translate(597,405)"/>
<path d="M0 0 C2.25 -0.25 2.25 -0.25 5 0 C7.3125 2 7.3125 2 9 4 C6 4 3 4 0 4 C0 2.68 0 1.36 0 0 Z " fill="#7FBD4E" transform="translate(595,403)"/>
<path d="M0 0 C0.66 0.66 1.32 1.32 2 2 C-0.64 4.97 -3.28 7.94 -6 11 C-6 7.39426104 -5.18292538 6.58663434 -3 3.8125 C-2.443125 3.09707031 -1.88625 2.38164062 -1.3125 1.64453125 C-0.879375 1.10183594 -0.44625 0.55914062 0 0 Z " fill="#75BC43" transform="translate(605,243)"/>
<path d="M0 0 C2.16874252 0.50603992 3.99967627 0.99983813 6 2 C6 2.66 6 3.32 6 4 C6.99 4.33 7.98 4.66 9 5 C8.67 5.66 8.34 6.32 8 7 C4.2047869 5.50902342 2.38957269 3.24299151 0 0 Z " fill="#6CC945" transform="translate(625,427)"/>
<path d="M0 0 C1.5 1.375 1.5 1.375 3 3 C3 3.66 3 4.32 3 5 C4.98 5 6.96 5 9 5 C8.67 5.66 8.34 6.32 8 7 C5.66705225 7.04241723 3.33297433 7.04092937 1 7 C0 6 0 6 -0.0625 2.9375 C-0.041875 1.968125 -0.02125 0.99875 0 0 Z " fill="#77BE44" transform="translate(686,345)"/>
<path d="M0 0 C0.99 0.33 1.98 0.66 3 1 C0.69 3.64 -1.62 6.28 -4 9 C-4.33 8.34 -4.66 7.68 -5 7 C-3.35 4.69 -1.7 2.38 0 0 Z " fill="#74BB48" transform="translate(552,308)"/>
<path d="M0 0 C0.33 0.66 0.66 1.32 1 2 C1.66 2.33 2.32 2.66 3 3 C1.35830472 5.02054804 -0.30911778 7.02043058 -2 9 C-2.33 9 -2.66 9 -3 9 C-3.36923077 3.46153846 -3.36923077 3.46153846 -1.5 1.125 C-1.005 0.75375 -0.51 0.3825 0 0 Z " fill="#63BD32" transform="translate(631,210)"/>
<path d="M0 0 C2.05078125 0.03255208 4.1015625 0.06510417 6.15234375 0.09765625 C6.48234375 0.75765625 6.81234375 1.41765625 7.15234375 2.09765625 C0.52734375 3.34765625 0.52734375 3.34765625 -2.84765625 1.09765625 C-1.84765625 0.09765625 -1.84765625 0.09765625 0 0 Z " fill="#65B630" transform="translate(578.84765625,417.90234375)"/>
<path d="M0 0 C3.0916909 2.52956528 3.90931332 5.22454612 5 9 C3.68 8.67 2.36 8.34 1 8 C0.67 5.36 0.34 2.72 0 0 Z " fill="#7AB952" transform="translate(630,406)"/>
<path d="M0 0 C2.5 2.25 2.5 2.25 5 5 C5 6.32 5 7.64 5 9 C1.7457985 6.16569547 0.4793247 4.31392226 0 0 Z " fill="#71B544" transform="translate(711,344)"/>
<path d="M0 0 C0.66 0.33 1.32 0.66 2 1 C1 4 1 4 -2 6 C-4.1875 5.625 -4.1875 5.625 -6 5 C-5.195625 4.360625 -4.39125 3.72125 -3.5625 3.0625 C-1.7249496 1.59396498 -1.7249496 1.59396498 0 0 Z " fill="#69AF33" transform="translate(727,416)"/>
<path d="M0 0 C2.97 0 5.94 0 9 0 C9.33 0.99 9.66 1.98 10 3 C8.5199159 2.88637738 7.04089926 2.75877092 5.5625 2.625 C4.73878906 2.55539062 3.91507813 2.48578125 3.06640625 2.4140625 C2.38449219 2.27742188 1.70257812 2.14078125 1 2 C0.67 1.34 0.34 0.68 0 0 Z " fill="#75BD46" transform="translate(726,387)"/>
<path d="M0 0 C0.66 0 1.32 0 2 0 C2.99 2.31 3.98 4.62 5 7 C4.34 7.66 3.68 8.32 3 9 C0 3.375 0 3.375 0 0 Z " fill="#75B848" transform="translate(544,445)"/>
<path d="M0 0 C1.32 0 2.64 0 4 0 C4 1.65 4 3.3 4 5 C2.35 4.67 0.7 4.34 -1 4 C-0.67 2.68 -0.34 1.36 0 0 Z " fill="#82BC5E" transform="translate(659,400)"/>
<path d="M0 0 C3.16717283 1.58358642 4.73268318 2.45263699 6.3125 5.6875 C6.539375 6.450625 6.76625 7.21375 7 8 C3.28631113 6.76210371 2.22645819 5.14775123 0 2 C0 1.34 0 0.68 0 0 Z " fill="#73BB43" transform="translate(687,270)"/>
</svg>
